ffmpeg started on 2025-06-16 at 16:54:33
Report written to "D:\Convert\FFMetrics\reports\psnr_report-6.txt"
Log level: 32
Command line:
ffmpeg -hide_banner -nostdin -i "G:\\\xc0\xed\xe8\xec\xe5\\[\xd2\xee\xef]\\\xd0\xfb\xf6\xe0\xf0\xfc-\xe2\xe0\xec\xef\xe8\xf0\\\xd2\xc2-2\\[JamClub] Vampire Knight Guilty - 05_HEVC.mkv" -i "G:\\\xc0\xed\xe8\xec\xe5\\[\xd2\xee\xef]\\\xd0\xfb\xf6\xe0\xf0\xfc-\xe2\xe0\xec\xef\xe8\xf0\\\xd2\xc2-2\\[JamClub] Vampire Knight Guilty - 05.mp4" -lavfi "[0:v]settb=AVTB,setpts=PTS-STARTPTS,format=pix_fmts=yuv420p10,fps=24000/1001,scale=1920:1080:flags=bicubic[main];[1:v]settb=AVTB,setpts=PTS-STARTPTS,format=pix_fmts=yuv420p,fps=24000/1001,scale=1920:1080:flags=bicubic[ref];[main][ref]psnr=eof_action=endall:stats_file='D\\:/Convert/FFMetrics/logs/psnr_logfile-6.txt'" -f null -
Input #0, matroska,webm, from 'G:\Аниме\[Топ]\Рыцарь-вампир\ТВ-2\[JamClub] Vampire Knight Guilty - 05_HEVC.mkv':
  Metadata:
    COMPATIBLE_BRANDS: isomiso2avc1mp41
    MAJOR_BRAND     : isom
    MINOR_VERSION   : 512
    ENCODER         : Lavf61.7.100
  Duration: 00:24:23.03, start: -0.001000, bitrate: 980 kb/s
  Stream #0:0: Video: hevc (Main 10), yuv420p10le(tv, bt709, progressive), 1920x1080 [SAR 1:1 DAR 16:9], 23.98 fps, 23.98 tbr, 1k tbn (default)
      Metadata:
        HANDLER_NAME    : VideoHandler
        VENDOR_ID       : [0][0][0][0]
        ENCODER         : Lavc61.19.100 libx265
        BPS             : 781852
        DURATION        : 00:24:22.961708333
        NUMBER_OF_FRAMES: 43712
        NUMBER_OF_BYTES : 142977396
        _STATISTICS_WRITING_APP: mkvpropedit v66.0.0 ('Josie') 64-bit
        _STATISTICS_WRITING_DATE_UTC: 2025-06-16 10:57:20
        _STATISTICS_TAGS: BPS DURATION NUMBER_OF_FRAMES NUMBER_OF_BYTES
  Stream #0:1(eng): Audio: aac (LC), 48000 Hz, stereo, fltp (default)
      Metadata:
        HANDLER_NAME    : SoundHandler
        VENDOR_ID       : [0][0][0][0]
        ENCODER         : Lavc61.19.100 aac
        BPS             : 194522
        DURATION        : 00:24:22.992000000
        NUMBER_OF_FRAMES: 68579
        NUMBER_OF_BYTES : 35573085
        _STATISTICS_WRITING_APP: mkvpropedit v66.0.0 ('Josie') 64-bit
        _STATISTICS_WRITING_DATE_UTC: 2025-06-16 10:57:20
        _STATISTICS_TAGS: BPS DURATION NUMBER_OF_FRAMES NUMBER_OF_BYTES
Input #1, mov,mp4,m4a,3gp,3g2,mj2, from 'G:\Аниме\[Топ]\Рыцарь-вампир\ТВ-2\[JamClub] Vampire Knight Guilty - 05.mp4':
  Metadata:
    major_brand     : isom
    minor_version   : 512
    compatible_brands: isomiso2avc1mp41
    encoder         : Lavf60.16.100
  Duration: 00:24:23.01, start: 0.000000, bitrate: 3686 kb/s
  Stream #1:0[0x1](und): Video: h264 (High) (avc1 / 0x31637661), yuv420p(progressive), 1920x1080 [SAR 1:1 DAR 16:9], 3486 kb/s, 29.88 fps, 23.98 tbr, 90k tbn (default)
      Metadata:
        handler_name    : VideoHandler
        vendor_id       : [0][0][0][0]
  Stream #1:1[0x2](eng): Audio: aac (LC) (mp4a / 0x6134706D), 48000 Hz, stereo, fltp, 191 kb/s (default)
      Metadata:
        handler_name    : SoundHandler
        vendor_id       : [0][0][0][0]
Stream mapping:
  Stream #0:0 (hevc) -> settb:default
  Stream #1:0 (h264) -> settb:default
  psnr:default -> Stream #0:0 (wrapped_avframe)
  Stream #0:1 -> #0:1 (aac (native) -> pcm_s16le (native))
Output #0, null, to 'pipe:':
  Metadata:
    COMPATIBLE_BRANDS: isomiso2avc1mp41
    MAJOR_BRAND     : isom
    MINOR_VERSION   : 512
    encoder         : Lavf61.7.100
  Stream #0:0: Video: wrapped_avframe, yuv420p10le(tv, bt709, progressive), 1920x1080 [SAR 1:1 DAR 16:9], q=2-31, 200 kb/s, 23.98 fps, 23.98 tbn
      Metadata:
        encoder         : Lavc61.19.100 wrapped_avframe
  Stream #0:1(eng): Audio: pcm_s16le, 48000 Hz, stereo, s16, 1536 kb/s (default)
      Metadata:
        HANDLER_NAME    : SoundHandler
        VENDOR_ID       : [0][0][0][0]
        _STATISTICS_TAGS: BPS DURATION NUMBER_OF_FRAMES NUMBER_OF_BYTES
        BPS             : 194522
        DURATION        : 00:24:22.992000000
        NUMBER_OF_FRAMES: 68579
        NUMBER_OF_BYTES : 35573085
        _STATISTICS_WRITING_APP: mkvpropedit v66.0.0 ('Josie') 64-bit
        _STATISTICS_WRITING_DATE_UTC: 2025-06-16 10:57:20
        encoder         : Lavc61.19.100 pcm_s16le
frame=  113 fps=0.0 q=-0.0 size=N/A time=00:00:04.71 bitrate=N/A speed=9.06x    frame=  274 fps=266 q=-0.0 size=N/A time=00:00:11.42 bitrate=N/A speed=11.1x    frame=  481 fps=310 q=-0.0 size=N/A time=00:00:20.06 bitrate=N/A speed=12.9x    frame=  721 fps=349 q=-0.0 size=N/A time=00:00:30.07 bitrate=N/A speed=14.6x    frame=  934 fps=361 q=-0.0 size=N/A time=00:00:38.95 bitrate=N/A speed=  15x    frame= 1158 fps=373 q=-0.0 size=N/A time=00:00:48.29 bitrate=N/A speed=15.6x    frame= 1385 fps=383 q=-0.0 size=N/A time=00:00:57.76 bitrate=N/A speed=  16x    frame= 1596 fps=386 q=-0.0 size=N/A time=00:01:06.56 bitrate=N/A speed=16.1x    frame= 1815 fps=391 q=-0.0 size=N/A time=00:01:15.70 bitrate=N/A speed=16.3x    frame= 2035 fps=395 q=-0.0 size=N/A time=00:01:24.87 bitrate=N/A speed=16.5x    frame= 2257 fps=397 q=-0.0 size=N/A time=00:01:34.13 bitrate=N/A speed=16.6x    frame= 2457 fps=397 q=-0.0 size=N/A time=00:01:42.47 bitrate=N/A speed=16.5x    frame= 2654 fps=396 q=-0.0 size=N/A time=00:01:50.69 bitrate=N/A speed=16.5x    frame= 2850 fps=395 q=-0.0 size=N/A time=00:01:58.86 bitrate=N/A speed=16.5x    frame= 3071 fps=397 q=-0.0 size=N/A time=00:02:08.08 bitrate=N/A speed=16.5x    frame= 3276 fps=397 q=-0.0 size=N/A time=00:02:16.63 bitrate=N/A speed=16.6x    frame= 3480 fps=396 q=-0.0 size=N/A time=00:02:25.14 bitrate=N/A speed=16.5x    frame= 3638 fps=392 q=-0.0 size=N/A time=00:02:31.73 bitrate=N/A speed=16.3x    frame= 3849 fps=393 q=-0.0 size=N/A time=00:02:40.53 bitrate=N/A speed=16.4x    frame= 4077 fps=395 q=-0.0 size=N/A time=00:02:50.04 bitrate=N/A speed=16.5x    frame= 4303 fps=397 q=-0.0 size=N/A time=00:02:59.47 bitrate=N/A speed=16.6x    frame= 4553 fps=401 q=-0.0 size=N/A time=00:03:09.89 bitrate=N/A speed=16.7x    frame= 4785 fps=403 q=-0.0 size=N/A time=00:03:19.57 bitrate=N/A speed=16.8x    frame= 5014 fps=405 q=-0.0 size=N/A time=00:03:29.12 bitrate=N/A speed=16.9x    frame= 5263 fps=408 q=-0.0 size=N/A time=00:03:39.51 bitrate=N/A speed=  17x    frame= 5503 fps=410 q=-0.0 size=N/A time=00:03:49.52 bitrate=N/A speed=17.1x    frame= 5746 fps=413 q=-0.0 size=N/A time=00:03:59.65 bitrate=N/A speed=17.2x    frame= 5994 fps=415 q=-0.0 size=N/A time=00:04:09.99 bitrate=N/A speed=17.3x    frame= 6233 fps=417 q=-0.0 size=N/A time=00:04:19.96 bitrate=N/A speed=17.4x    frame= 6456 fps=417 q=-0.0 size=N/A time=00:04:29.26 bitrate=N/A speed=17.4x    frame= 6687 fps=418 q=-0.0 size=N/A time=00:04:38.90 bitrate=N/A speed=17.4x    frame= 6919 fps=419 q=-0.0 size=N/A time=00:04:48.62 bitrate=N/A speed=17.5x    frame= 7147 fps=420 q=-0.0 size=N/A time=00:04:58.08 bitrate=N/A speed=17.5x    frame= 7392 fps=421 q=-0.0 size=N/A time=00:05:08.30 bitrate=N/A speed=17.6x    frame= 7599 fps=421 q=-0.0 size=N/A time=00:05:16.94 bitrate=N/A speed=17.6x    frame= 7809 fps=421 q=-0.0 size=N/A time=00:05:25.70 bitrate=N/A speed=17.5x    frame= 8041 fps=421 q=-0.0 size=N/A time=00:05:35.37 bitrate=N/A speed=17.6x    frame= 8279 fps=422 q=-0.0 size=N/A time=00:05:45.30 bitrate=N/A speed=17.6x    frame= 8524 fps=424 q=-0.0 size=N/A time=00:05:55.52 bitrate=N/A speed=17.7x    frame= 8769 fps=425 q=-0.0 size=N/A time=00:06:05.74 bitrate=N/A speed=17.7x    frame= 9003 fps=426 q=-0.0 size=N/A time=00:06:15.50 bitrate=N/A speed=17.8x    frame= 9255 fps=427 q=-0.0 size=N/A time=00:06:26.01 bitrate=N/A speed=17.8x    frame= 9498 fps=428 q=-0.0 size=N/A time=00:06:36.14 bitrate=N/A speed=17.8x    frame= 9733 fps=429 q=-0.0 size=N/A time=00:06:45.94 bitrate=N/A speed=17.9x    frame= 9963 fps=429 q=-0.0 size=N/A time=00:06:55.54 bitrate=N/A speed=17.9x    frame=10208 fps=430 q=-0.0 size=N/A time=00:07:05.75 bitrate=N/A speed=17.9x    frame=10460 fps=431 q=-0.0 size=N/A time=00:07:16.26 bitrate=N/A speed=  18x    frame=10715 fps=432 q=-0.0 size=N/A time=00:07:26.90 bitrate=N/A speed=  18x    frame=10945 fps=433 q=-0.0 size=N/A time=00:07:36.49 bitrate=N/A speed=18.1x    frame=11193 fps=434 q=-0.0 size=N/A time=00:07:46.84 bitrate=N/A speed=18.1x    frame=11435 fps=434 q=-0.0 size=N/A time=00:07:56.93 bitrate=N/A speed=18.1x    frame=11667 fps=435 q=-0.0 size=N/A time=00:08:06.61 bitrate=N/A speed=18.1x    frame=11900 fps=435 q=-0.0 size=N/A time=00:08:16.32 bitrate=N/A speed=18.1x    frame=12113 fps=435 q=-0.0 size=N/A time=00:08:25.21 bitrate=N/A speed=18.1x    frame=12335 fps=435 q=-0.0 size=N/A time=00:08:34.47 bitrate=N/A speed=18.1x    frame=12573 fps=435 q=-0.0 size=N/A time=00:08:44.39 bitrate=N/A speed=18.1x    frame=12818 fps=436 q=-0.0 size=N/A time=00:08:54.61 bitrate=N/A speed=18.2x    frame=13065 fps=437 q=-0.0 size=N/A time=00:09:04.91 bitrate=N/A speed=18.2x    frame=13295 fps=437 q=-0.0 size=N/A time=00:09:14.51 bitrate=N/A speed=18.2x    frame=13540 fps=437 q=-0.0 size=N/A time=00:09:24.73 bitrate=N/A speed=18.2x    frame=13760 fps=437 q=-0.0 size=N/A time=00:09:33.90 bitrate=N/A speed=18.2x    frame=13981 fps=437 q=-0.0 size=N/A time=00:09:43.12 bitrate=N/A speed=18.2x    frame=14232 fps=438 q=-0.0 size=N/A time=00:09:53.59 bitrate=N/A speed=18.3x    frame=14481 fps=438 q=-0.0 size=N/A time=00:10:03.97 bitrate=N/A speed=18.3x    frame=14735 fps=439 q=-0.0 size=N/A time=00:10:14.57 bitrate=N/A speed=18.3x    frame=14960 fps=439 q=-0.0 size=N/A time=00:10:23.95 bitrate=N/A speed=18.3x    frame=15189 fps=439 q=-0.0 size=N/A time=00:10:33.50 bitrate=N/A speed=18.3x    frame=15433 fps=440 q=-0.0 size=N/A time=00:10:43.68 bitrate=N/A speed=18.3x    frame=15665 fps=440 q=-0.0 size=N/A time=00:10:53.36 bitrate=N/A speed=18.4x    frame=15917 fps=441 q=-0.0 size=N/A time=00:11:03.87 bitrate=N/A speed=18.4x    frame=16145 fps=441 q=-0.0 size=N/A time=00:11:13.38 bitrate=N/A speed=18.4x    frame=16371 fps=441 q=-0.0 size=N/A time=00:11:22.80 bitrate=N/A speed=18.4x    frame=16603 fps=441 q=-0.0 size=N/A time=00:11:32.48 bitrate=N/A speed=18.4x    frame=16853 fps=441 q=-0.0 size=N/A time=00:11:42.91 bitrate=N/A speed=18.4x    frame=17101 fps=442 q=-0.0 size=N/A time=00:11:53.25 bitrate=N/A speed=18.4x    frame=17332 fps=442 q=-0.0 size=N/A time=00:12:02.88 bitrate=N/A speed=18.4x    frame=17525 fps=441 q=-0.0 size=N/A time=00:12:10.93 bitrate=N/A speed=18.4x    frame=17743 fps=441 q=-0.0 size=N/A time=00:12:20.03 bitrate=N/A speed=18.4x    frame=17945 fps=440 q=-0.0 size=N/A time=00:12:28.45 bitrate=N/A speed=18.4x    frame=18183 fps=441 q=-0.0 size=N/A time=00:12:38.38 bitrate=N/A speed=18.4x    frame=18413 fps=441 q=-0.0 size=N/A time=00:12:47.97 bitrate=N/A speed=18.4x    frame=18658 fps=441 q=-0.0 size=N/A time=00:12:58.19 bitrate=N/A speed=18.4x    frame=18909 fps=442 q=-0.0 size=N/A time=00:13:08.66 bitrate=N/A speed=18.4x    frame=19145 fps=442 q=-0.0 size=N/A time=00:13:18.50 bitrate=N/A speed=18.4x    frame=19361 fps=441 q=-0.0 size=N/A time=00:13:27.51 bitrate=N/A speed=18.4x    frame=19588 fps=441 q=-0.0 size=N/A time=00:13:36.98 bitrate=N/A speed=18.4x    frame=19827 fps=442 q=-0.0 size=N/A time=00:13:46.95 bitrate=N/A speed=18.4x    frame=20059 fps=442 q=-0.0 size=N/A time=00:13:56.62 bitrate=N/A speed=18.4x    frame=20285 fps=442 q=-0.0 size=N/A time=00:14:06.05 bitrate=N/A speed=18.4x    frame=20513 fps=442 q=-0.0 size=N/A time=00:14:15.56 bitrate=N/A speed=18.4x    frame=20769 fps=442 q=-0.0 size=N/A time=00:14:26.24 bitrate=N/A speed=18.4x    frame=21022 fps=443 q=-0.0 size=N/A time=00:14:36.79 bitrate=N/A speed=18.5x    frame=21261 fps=443 q=-0.0 size=N/A time=00:14:46.76 bitrate=N/A speed=18.5x    frame=21494 fps=443 q=-0.0 size=N/A time=00:14:56.47 bitrate=N/A speed=18.5x    frame=21736 fps=443 q=-0.0 size=N/A time=00:15:06.57 bitrate=N/A speed=18.5x    frame=21966 fps=443 q=-0.0 size=N/A time=00:15:16.16 bitrate=N/A speed=18.5x    frame=22209 fps=444 q=-0.0 size=N/A time=00:15:26.30 bitrate=N/A speed=18.5x    frame=22451 fps=444 q=-0.0 size=N/A time=00:15:36.39 bitrate=N/A speed=18.5x    frame=22688 fps=444 q=-0.0 size=N/A time=00:15:46.27 bitrate=N/A speed=18.5x    frame=22928 fps=444 q=-0.0 size=N/A time=00:15:56.28 bitrate=N/A speed=18.5x    frame=23165 fps=444 q=-0.0 size=N/A time=00:16:06.17 bitrate=N/A speed=18.5x    frame=23410 fps=445 q=-0.0 size=N/A time=00:16:16.39 bitrate=N/A speed=18.5x    frame=23654 fps=445 q=-0.0 size=N/A time=00:16:26.56 bitrate=N/A speed=18.6x    frame=23909 fps=445 q=-0.0 size=N/A time=00:16:37.20 bitrate=N/A speed=18.6x    frame=24133 fps=445 q=-0.0 size=N/A time=00:16:46.54 bitrate=N/A speed=18.6x    frame=24377 fps=446 q=-0.0 size=N/A time=00:16:56.72 bitrate=N/A speed=18.6x    frame=24629 fps=446 q=-0.0 size=N/A time=00:17:07.23 bitrate=N/A speed=18.6x    frame=24867 fps=446 q=-0.0 size=N/A time=00:17:17.16 bitrate=N/A speed=18.6x    frame=25094 fps=446 q=-0.0 size=N/A time=00:17:26.62 bitrate=N/A speed=18.6x    frame=25325 fps=446 q=-0.0 size=N/A time=00:17:36.26 bitrate=N/A speed=18.6x    frame=25574 fps=446 q=-0.0 size=N/A time=00:17:46.64 bitrate=N/A speed=18.6x    frame=25821 fps=447 q=-0.0 size=N/A time=00:17:56.95 bitrate=N/A speed=18.6x    frame=26041 fps=447 q=-0.0 size=N/A time=00:18:06.12 bitrate=N/A speed=18.6x    frame=26275 fps=447 q=-0.0 size=N/A time=00:18:15.88 bitrate=N/A speed=18.6x    frame=26488 fps=446 q=-0.0 size=N/A time=00:18:24.77 bitrate=N/A speed=18.6x    frame=26667 fps=445 q=-0.0 size=N/A time=00:18:32.23 bitrate=N/A speed=18.6x    frame=26869 fps=445 q=-0.0 size=N/A time=00:18:40.66 bitrate=N/A speed=18.6x    frame=27094 fps=445 q=-0.0 size=N/A time=00:18:50.04 bitrate=N/A speed=18.6x    frame=27326 fps=445 q=-0.0 size=N/A time=00:18:59.72 bitrate=N/A speed=18.6x    frame=27579 fps=445 q=-0.0 size=N/A time=00:19:10.27 bitrate=N/A speed=18.6x    frame=27799 fps=445 q=-0.0 size=N/A time=00:19:19.44 bitrate=N/A speed=18.6x    frame=28035 fps=445 q=-0.0 size=N/A time=00:19:29.29 bitrate=N/A speed=18.6x    frame=28280 fps=445 q=-0.0 size=N/A time=00:19:39.51 bitrate=N/A speed=18.6x    frame=28506 fps=445 q=-0.0 size=N/A time=00:19:48.93 bitrate=N/A speed=18.6x    frame=28723 fps=445 q=-0.0 size=N/A time=00:19:57.98 bitrate=N/A speed=18.6x    frame=28977 fps=446 q=-0.0 size=N/A time=00:20:08.58 bitrate=N/A speed=18.6x    frame=29208 fps=446 q=-0.0 size=N/A time=00:20:18.21 bitrate=N/A speed=18.6x    frame=29436 fps=446 q=-0.0 size=N/A time=00:20:27.72 bitrate=N/A speed=18.6x    frame=29681 fps=446 q=-0.0 size=N/A time=00:20:37.94 bitrate=N/A speed=18.6x    frame=29913 fps=446 q=-0.0 size=N/A time=00:20:47.62 bitrate=N/A speed=18.6x    frame=30139 fps=446 q=-0.0 size=N/A time=00:20:57.04 bitrate=N/A speed=18.6x    frame=30376 fps=446 q=-0.0 size=N/A time=00:21:06.93 bitrate=N/A speed=18.6x    frame=30613 fps=446 q=-0.0 size=N/A time=00:21:16.81 bitrate=N/A speed=18.6x    frame=30833 fps=446 q=-0.0 size=N/A time=00:21:25.99 bitrate=N/A speed=18.6x    frame=31082 fps=446 q=-0.0 size=N/A time=00:21:36.37 bitrate=N/A speed=18.6x    frame=31298 fps=446 q=-0.0 size=N/A time=00:21:45.38 bitrate=N/A speed=18.6x    frame=31534 fps=446 q=-0.0 size=N/A time=00:21:55.23 bitrate=N/A speed=18.6x    frame=31774 fps=446 q=-0.0 size=N/A time=00:22:05.24 bitrate=N/A speed=18.6x    frame=32010 fps=446 q=-0.0 size=N/A time=00:22:15.08 bitrate=N/A speed=18.6x    frame=32246 fps=446 q=-0.0 size=N/A time=00:22:24.92 bitrate=N/A speed=18.6x    frame=32491 fps=447 q=-0.0 size=N/A time=00:22:35.14 bitrate=N/A speed=18.6x    frame=32712 fps=446 q=-0.0 size=N/A time=00:22:44.36 bitrate=N/A speed=18.6x    frame=32933 fps=446 q=-0.0 size=N/A time=00:22:53.58 bitrate=N/A speed=18.6x    frame=33141 fps=446 q=-0.0 size=N/A time=00:23:02.25 bitrate=N/A speed=18.6x    frame=33336 fps=446 q=-0.0 size=N/A time=00:23:10.38 bitrate=N/A speed=18.6x    frame=33539 fps=445 q=-0.0 size=N/A time=00:23:18.89 bitrate=N/A speed=18.6x    frame=33745 fps=445 q=-0.0 size=N/A time=00:23:27.44 bitrate=N/A speed=18.6x    frame=33953 fps=445 q=-0.0 size=N/A time=00:23:36.12 bitrate=N/A speed=18.5x    frame=34177 fps=445 q=-0.0 size=N/A time=00:23:45.46 bitrate=N/A speed=18.5x    frame=34412 fps=445 q=-0.0 size=N/A time=00:23:55.26 bitrate=N/A speed=18.5x    frame=34591 fps=444 q=-0.0 size=N/A time=00:24:02.73 bitrate=N/A speed=18.5x    frame=34780 fps=443 q=-0.0 size=N/A time=00:24:10.61 bitrate=N/A speed=18.5x    frame=35006 fps=443 q=-0.0 size=N/A time=00:24:20.04 bitrate=N/A speed=18.5x    [Parsed_psnr_10 @ 000001ff81e34d40] PSNR y:49.799120 u:52.376995 v:52.978748 average:50.562167 min:32.344058 max:inf
[out#0/null @ 000001fffb1a40c0] video:15072KiB audio:274316KiB subtitle:0KiB other streams:0KiB global headers:0KiB muxing overhead: unknown
frame=35076 fps=444 q=-0.0 Lsize=N/A time=00:24:22.96 bitrate=N/A speed=18.5x    
